<?xml version="1.0" encoding="UTF-8" standalone="no"?>
<!DOCTYPE svg PUBLIC "-//W3C//DTD SVG 1.1//EN" "http://www.w3.org/Graphics/SVG/1.1/DTD/svg11.dtd">
<svg width="100%" height="100%" viewBox="0 0 5831 4134" version="1.1" xmlns="http://www.w3.org/2000/svg" xmlns:xlink="http://www.w3.org/1999/xlink" xml:space="preserve" xmlns:serif="http://www.serif.com/" style="fill-rule:evenodd;clip-rule:evenodd;stroke-linecap:round;stroke-linejoin:round;stroke-miterlimit:1.5;">
    <g transform="matrix(8.06881,0,0,8.06881,-1217.615704,-2063.727029)">
        <path d="M500.793,256.218C505.287,255.534 519.953,255.786 524.832,255.95C566.423,257.423 607.408,266.375 645.826,282.377C746.192,323.793 831.918,412.205 873.449,512.107C850.439,564.146 824.762,604.861 784.682,646.05C717.665,714.92 620.879,766.705 523.094,767.562C508.744,768.637 491.169,767.597 476.889,766.01C429.58,761.039 383.729,746.723 341.997,723.891C272.842,686.377 215.568,630.451 176.049,562.694C168.322,549.446 155.28,526.498 150.904,511.727C152.553,505.618 158.752,493.064 161.73,487.21C178.335,454.029 199.153,423.131 223.668,395.279C299.739,309.659 386.117,263.097 500.793,256.218Z" style="fill:rgb(14,19,60);fill-rule:nonzero;"/>
    </g>
    <g transform="matrix(8.06881,0,0,8.06881,-1217.615704,-2063.727029)">
        <path d="M495.244,269.293C501.873,268.763 508.962,268.858 515.593,268.867C654.086,269.062 777.057,360.258 842.904,478.04C849.063,489.057 854.472,500.505 860.029,511.896C843.103,549.794 820.83,585.068 793.89,616.643C737.407,683.347 663.682,731.116 577.545,748.264C560.175,751.722 545.765,753.402 528.123,754.854C487.239,757.323 439.199,749.773 400.693,736.224C308.949,703.942 234.402,636.628 185.266,553.493C177.51,540.371 170.757,526.009 164.147,512.263C179.765,473.732 209.695,429.848 237.405,399.116C304.834,324.333 393.394,274.45 495.244,269.293ZM687.63,446.315L665.785,383.895L642.702,318.049L600.419,318.049L583.451,366.777L555.659,446.315L602.366,446.315L610.08,419.435L633.199,419.435L640.906,446.315L687.63,446.315ZM327.882,603.27C330.067,610.257 333.473,619.015 338.695,628.191C340.242,630.909 341.994,633.738 343.973,636.619C336.133,641.941 327.157,645.764 317.109,648.092L308.047,650.191L315.942,684.267L325.003,682.168C342.821,678.039 356.983,670.729 368.201,662.182C379.418,670.729 393.58,678.039 411.398,682.168L420.459,684.268L428.354,650.191L419.293,648.092C409.244,645.764 400.269,641.941 392.429,636.619C394.407,633.738 396.16,630.909 397.707,628.191C402.928,619.015 406.334,610.257 408.519,603.27L429.265,603.27L429.265,568.241L385.211,568.241L385.211,551.814L350.929,551.814L350.929,568.241L306.875,568.241L306.875,603.27L327.882,603.27ZM368.201,609.281C367.091,607.231 366.106,605.217 365.232,603.27L371.17,603.27C370.296,605.217 369.31,607.231 368.201,609.281Z" style="fill:rgb(51,53,130);"/>
    </g>
    <g transform="matrix(8.06881,0,0,8.06881,-1217.615704,-2063.727029)">
        <path d="M505.885,315.701C542.34,313.691 590.647,324.35 624.51,336.898C712.072,369.346 783.865,426.858 823.746,512.141C819.865,521.5 816.725,529.518 812.218,538.695C798.813,565.529 781.278,590.094 760.254,611.49C696.697,676.721 609.545,710.339 519.103,711.502C377.231,712.282 255.681,645.966 200.346,512.016C211.092,485.283 229.261,459.389 248.266,437.847C266.914,416.947 288.054,398.413 311.214,382.66C371.379,340.922 433.081,320.331 505.885,315.701Z" style="fill:rgb(14,19,60);fill-rule:nonzero;"/>
    </g>
    <g transform="matrix(8.06881,0,0,8.06881,-1217.615704,-2063.727029)">
        <path d="M348.816,568.241C342.945,550.864 340.312,535.811 339.364,518.066C339.341,517.372 339.321,516.679 339.306,515.985C341.055,513.671 342.88,511.652 344.762,509.464C356.948,495.291 369.794,481.572 382.214,467.547C387.075,462.057 391.871,456.52 396.536,450.891C388.801,450.592 381.075,450.085 373.369,449.368C369.278,448.988 365.191,448.549 361.112,448.051C365.303,438.748 370.295,429.826 376.029,421.385C403.187,381.874 440.896,360.702 487.26,352.151C504.946,349.468 516.847,355.317 528.785,339.89C533.932,340.378 539.033,341.102 544.073,342.052C550.766,343.489 557.113,345.042 563.221,346.83C571.425,349.39 579.408,352.56 587.102,356.292L583.451,366.777L555.659,446.315L602.366,446.315L610.08,419.435L633.199,419.435L640.906,446.315L671.68,446.315C672.733,448.93 673.722,451.579 674.646,454.262C680.806,472.151 683.54,487.487 684.509,505.641C684.532,506.335 684.552,507.028 684.567,507.722C682.818,510.036 680.993,512.055 679.111,514.243C662.156,533.963 643.921,552.804 627.337,572.816C639.179,573.273 650.998,574.22 662.761,575.656C658.57,584.959 653.578,593.881 647.844,602.322C620.686,641.833 582.977,663.005 536.613,671.556C518.927,674.239 507.026,668.39 495.088,683.817C489.941,683.329 484.84,682.605 479.8,681.655C473.107,680.218 466.76,678.665 460.652,676.877C448.445,673.067 436.728,667.909 425.721,661.555L428.354,650.191L419.293,648.092C409.267,645.769 400.309,641.958 392.481,636.655C392.466,636.64 392.45,636.625 392.435,636.611C394.411,633.732 396.161,630.906 397.707,628.191C402.928,619.015 406.334,610.257 408.519,603.27L429.265,603.27L429.265,568.241L385.211,568.241L385.211,551.814L350.929,551.814L350.929,568.241L348.816,568.241ZM368.679,608.386C367.549,606.699 366.451,604.993 365.382,603.27L371.17,603.27C370.423,604.933 369.595,606.645 368.679,608.386Z" style="fill:rgb(39,174,140);"/>
    </g>
    <g transform="matrix(8.06881,0,0,8.06881,-1217.615704,-2063.727029)">
        <path d="M373.369,449.368C373.759,448.17 374.214,447.002 374.711,445.897C383.23,426.948 406.17,395.294 425.575,387.096C431.86,387.967 439.954,393.434 436.934,400.719C434.287,407.103 425.267,413.555 420.051,418.551C417.375,421.151 414.828,423.879 412.417,426.726C407.431,432.575 403.121,438.969 399.57,445.786C396.609,450.878 396.976,450.908 396.536,450.891C388.801,450.592 381.075,450.085 373.369,449.368Z" style="fill:rgb(254,254,254);"/>
    </g>
    <g transform="matrix(5.760845,0,0,5.760845,0.270713,-952.382845)">
        <path d="M463.152,411.149C466.045,411.04 471.829,410.898 474.431,411.891C485.93,416.278 500.237,425.758 510.965,432.105L556.792,458.954L583.918,474.807C592.422,479.698 609.94,488.446 614.045,496.775C628.638,526.39 602.865,538.291 583.571,549.476L550.129,568.966L516.174,588.891C503.527,596.369 490.871,604.469 477.577,610.688C468.236,615.058 458.042,613.084 449.761,607.528C433.807,596.824 437.352,574.229 437.432,557.319L437.474,512.82L437.408,464.81C437.387,455.421 437.17,446.168 437.882,436.792C438.94,422.867 449.814,413.379 463.152,411.149Z" style="fill:rgb(14,19,60);fill-rule:nonzero;"/>
    </g>
    <g transform="matrix(5.760845,0,0,5.760845,0.270713,-952.382845)">
        <path d="M457.234,434.203C457.877,432.058 463.328,427.4 468.482,429.457C474.999,432.058 521.261,459.289 530.973,464.982L571.134,488.528C578.748,492.994 586.575,497.281 593.969,502.094C595.475,503.074 596.937,504.101 597.868,505.682C599.449,508.368 600.479,513.233 599.292,516.219C596.84,522.389 554.348,545.301 545.743,550.295L496.256,579.417C480.719,588.561 454.621,609.824 455.48,575.719C455.882,559.722 455.49,542.848 455.487,526.779L455.483,472.321C455.483,463.166 454.416,443.592 457.234,434.203Z" style="fill:rgb(254,254,254);fill-rule:nonzero;"/>
    </g>
    <g transform="matrix(8.06881,0,0,8.06881,-1217.615704,-2063.727029)">
        <path d="M462.516,366.562C470.828,366.013 478.505,371.37 474.785,380.404C472.434,386.114 466.472,387.968 461.144,389.879C458.228,390.16 455.291,389.619 452.666,388.318C447.614,385.762 446.498,379.909 449.152,375.087C452.072,369.783 457.129,368.3 462.516,366.562Z" style="fill:rgb(254,254,254);fill-rule:nonzero;"/>
    </g>
    <g transform="matrix(8.06881,0,0,8.06881,-1217.615704,-2063.727029)">
        <path d="M323.268,646.436C288.092,623.428 257.649,593.473 234.933,557.065C226.444,543.355 219.121,528.956 213.042,514.021C212.089,510.72 213.903,507.344 215.459,504.278C252.078,432.079 323.469,376.609 398.52,348.814C378.889,362.077 361.627,378.666 348.213,397.669C338.939,410.807 329.858,427.085 324.218,442.767C316.879,440.109 308.307,436.961 302.248,435.265L290.394,431.948L294.052,443.702C295.912,449.675 308.303,489.669 315.278,509.158C315.234,520.333 316.201,531.901 318.245,543.97C319.602,552.214 321.473,560.318 323.832,568.241L306.875,568.241L306.875,603.27L327.882,603.27C330.067,610.257 333.473,619.015 338.695,628.191C340.242,630.909 341.994,633.738 343.973,636.619C337.771,640.829 330.859,644.101 323.268,646.436ZM414.813,682.959C420.088,685.921 425.339,688.61 431.977,692.37C407.297,686.662 383.302,678.323 360.627,667.455C363.289,665.766 365.812,664.002 368.201,662.182C379.418,670.729 393.58,678.039 411.398,682.168L414.813,682.959Z" style="fill:rgb(254,254,254);"/>
    </g>
    <g transform="matrix(8.06881,0,0,8.06881,-1217.615704,-2063.727029)">
        <path d="M353.734,390.257C349.378,391.945 344.089,395.047 341.306,396.573C311.696,412.448 284.491,432.449 260.508,455.978C248.135,468.243 236.868,481.575 226.835,495.818C223.608,500.315 216.918,511.773 213.042,514.021C212.089,510.72 213.903,507.344 215.459,504.278C252.078,432.079 323.469,376.609 398.52,348.814C381.485,360.322 366.234,374.335 353.734,390.257Z" style="fill:rgb(218,223,231);"/>
    </g>
    <g transform="matrix(8.06881,0,0,8.06881,-1217.615704,-2063.727029)">
        <path d="M658.432,362.92C659.602,363.495 660.758,364.069 661.897,364.641C723.485,395.574 777.117,443.001 808.768,504.85C810.482,508.199 811.819,510.678 811.388,514.407C805.656,525.935 803.15,533.881 796.157,545.939C754.453,617.853 686.386,666.857 606.942,688.651C655.577,659.591 678.044,635.303 700.954,583.485C713.224,587.5 725.341,592.017 737.505,595.958C732.117,581.834 728.105,567.259 723.355,552.886C718.63,538.589 712.796,522.978 708.933,508.462C707.12,501.65 707.359,488.47 705.862,480.093C699.695,445.582 688.608,422.126 669.559,394.681L665.785,383.895L658.432,362.92Z" style="fill:rgb(254,254,254);"/>
    </g>
    <g transform="matrix(8.06881,0,0,8.06881,-1217.615704,-2063.727029)">
        <path d="M658.432,362.92C659.602,363.495 660.758,364.069 661.897,364.641C723.485,395.574 777.117,443.001 808.768,504.85C810.482,508.199 811.819,510.678 811.388,514.407C806.68,511.509 796.885,495.394 792.842,489.779C789.267,484.783 785.486,479.937 781.511,475.253C752.706,441.126 715.417,413.306 675.923,392.624C674.162,391.702 670.399,389.855 667.754,389.522L665.785,383.895L658.432,362.92Z" style="fill:rgb(218,223,231);"/>
    </g>
    <g transform="matrix(8.06881,0,0,8.06881,-1217.615704,-2063.727029)">
        <path d="M697.878,506.314C700.586,508.269 721.004,574.205 723.429,581.995C715.585,579.8 703.471,575.124 695.445,572.326C690.398,589.316 680.4,607.715 670.191,622.178C634.628,672.56 571.069,705.411 509.039,702.391C504.073,699.251 500.097,694.799 502.429,688.458C505.557,680.458 517.027,681.539 524.006,681.226C576.187,678.89 626.078,649.943 655.195,606.73C663.876,593.846 669.232,582.239 674.992,567.674C666.253,567.244 653.971,566.645 645.552,565.374C662.061,546.081 680.368,524.57 697.878,506.314Z" style="fill:rgb(39,174,140);fill-rule:nonzero;"/>
    </g>
    <g transform="matrix(-8.06881,0,-0,-8.06881,7043.821551,6196.369754)">
        <path d="M697.878,506.314C700.586,508.269 721.004,574.205 723.429,581.995C715.585,579.8 703.471,575.124 695.445,572.326C690.398,589.316 680.4,607.715 670.191,622.178C634.628,672.56 571.069,705.411 509.039,702.391C504.073,699.251 500.097,694.799 502.429,688.458C505.557,680.458 517.027,681.539 524.006,681.226C576.187,678.89 626.078,649.943 655.195,606.73C663.876,593.846 669.232,582.239 674.992,567.674C666.253,567.244 653.971,566.645 645.552,565.374C662.061,546.081 680.368,524.57 697.878,506.314Z" style="fill:rgb(39,174,140);fill-rule:nonzero;"/>
    </g>
    <g transform="matrix(1.752349,0,0,1.752349,-1011.560077,-920.322471)">
        <path d="M2902.987,1130.959L2807.911,859.742L2681.026,859.742L2614.048,1052.084L2508.263,1354.829L2620.065,1354.829L2655.583,1231.057L2834.014,1231.057L2869.498,1354.829L2981.336,1354.829L2902.987,1130.959ZM2681.688,1148.543C2691.277,1117.6 2699.815,1089.445 2707.338,1064.775C2727.075,999.897 2739.639,956.999 2744.956,936.317C2746.741,944.331 2749.716,955.232 2753.844,969.055C2757.029,979.693 2768.612,1017.49 2788.663,1082.121C2794.753,1101.718 2801.611,1124.476 2809.239,1148.543L2681.688,1148.543Z" style="fill:white;fill-rule:nonzero;"/>
    </g>
    <g transform="matrix(1.752349,0,0,1.752349,-1763.734827,-181.444508)">
        <g>
            <rect x="1767.506" y="1585.183" width="477.897" height="75.638" style="fill:white;"/>
        </g>
        <g>
            <g>
                <path d="M2215.627,2025.217C2046.674,1986.068 1955.31,1879.619 1908.416,1797.216C1858.015,1708.646 1847.269,1629.202 1846.837,1625.86L1921.61,1616.168L1884.223,1621.014L1921.598,1616.076C1921.69,1616.766 1931.455,1686.335 1975.315,1762.309C2032.725,1861.758 2119.302,1925.501 2232.645,1951.76L2215.627,2025.217Z" style="fill:white;fill-rule:nonzero;"/>
            </g>
            <g>
                <path d="M1798.483,2025.217L1781.465,1951.76C1894.808,1925.501 1981.385,1861.759 2038.795,1762.309C2082.657,1686.335 2092.417,1616.766 2092.514,1616.076L2167.273,1625.86C2166.841,1629.201 2156.095,1708.645 2105.694,1797.216C2058.8,1879.619 1967.439,1986.068 1798.483,2025.217Z" style="fill:white;fill-rule:nonzero;"/>
            </g>
        </g>
        <g>
            <rect x="1970.354" y="1509.544" width="72.2" height="110.019" style="fill:white;"/>
        </g>
    </g>
    <g transform="matrix(0.451721,0,0,0.561231,2054.072229,-582.621061)">
        <rect x="727.972" y="5805.434" width="2355.997" height="266.516" style="fill:white;stroke:rgb(14,19,60);stroke-width:106px;"/>
    </g>
    <g transform="matrix(0.451721,0,0,0.561231,2054.072229,-433.044359)">
        <rect x="727.972" y="5805.434" width="2355.997" height="266.516" style="fill:white;stroke:rgb(14,19,60);stroke-width:106px;"/>
    </g>
    <g transform="matrix(0.451721,0,0,0.561231,2054.072229,-283.467656)">
        <rect x="727.972" y="5805.434" width="2355.997" height="266.516" style="fill:white;stroke:rgb(14,19,60);stroke-width:106px;"/>
    </g>
</svg>
