<?xml version="1.0" encoding="utf-8" standalone="no"?>
<!DOCTYPE svg PUBLIC "-//W3C//DTD SVG 1.1//EN"
  "http://www.w3.org/Graphics/SVG/1.1/DTD/svg11.dtd">
<svg xmlns:xlink="http://www.w3.org/1999/xlink" width="578.50225pt" height="278.6409pt" viewBox="0 0 578.50225 278.6409" xmlns="http://www.w3.org/2000/svg" version="1.1">
 <metadata>
  <rdf:RDF xmlns:dc="http://purl.org/dc/elements/1.1/" xmlns:cc="http://creativecommons.org/ns#" xmlns:rdf="http://www.w3.org/1999/02/22-rdf-syntax-ns#">
   <cc:Work>
    <dc:type rdf:resource="http://purl.org/dc/dcmitype/StillImage"/>
    <dc:date>2026-03-19T14:36:18.532015</dc:date>
    <dc:format>image/svg+xml</dc:format>
    <dc:creator>
     <cc:Agent>
      <dc:title>Matplotlib v3.10.8, https://matplotlib.org/</dc:title>
     </cc:Agent>
    </dc:creator>
   </cc:Work>
  </rdf:RDF>
 </metadata>
 <defs>
  <style type="text/css">*{stroke-linejoin: round; stroke-linecap: butt}</style>
 </defs>
 <g id="figure_1">
  <g id="patch_1">
   <path d="M 0 278.6409 
L 578.50225 278.6409 
L 578.50225 0 
L 0 0 
L 0 278.6409 
z
" style="fill: none"/>
  </g>
  <g id="patch_2">
   <path d="M 113.11185 221.76 
L 559.51185 221.76 
L 559.51185 147.84 
L 113.11185 147.84 
z
" style="fill: #d3d3d3; opacity: 0.25; stroke: #ffffff; stroke-width: 0.8; stroke-linejoin: miter"/>
  </g>
  <g id="patch_3">
   <path d="M 113.11185 73.92 
L 559.51185 73.92 
L 559.51185 0 
L 113.11185 0 
z
" style="fill: #d3d3d3; opacity: 0.25; stroke: #ffffff; stroke-width: 0.8; stroke-linejoin: miter"/>
  </g>
  <g id="axes_1">
   <g id="patch_4">
    <path d="M 113.11185 221.76 
L 559.51185 221.76 
L 559.51185 0 
L 113.11185 0 
L 113.11185 221.76 
z
" style="fill: none; opacity: 0"/>
   </g>
   <g id="matplotlib.axis_1">
    <g id="xtick_1">
     <g id="line2d_1">
      <path d="M 113.11185 221.76 
L 113.11185 0 
" clip-path="url(#p3468cd98c5)" style="fill: none; stroke: #d3d3d3; stroke-width: 0.8; stroke-linecap: round"/>
     </g>
     <g id="line2d_2">
      <defs>
       <path id="m3d27e702dc" d="M 0 0 
L 0 4.8 
" style="stroke: #808080"/>
      </defs>
      <g>
       <use xlink:href="#m3d27e702dc" x="113.11185" y="221.76" style="fill: #808080; stroke: #808080"/>
      </g>
     </g>
     <g id="text_1">
      <!-- 0 -->
      <g style="fill: #808080" transform="translate(105.813488 246.44065) scale(0.2288 -0.2288)">
       <defs>
        <path id="ProductSans-Regular-30" d="M 282 2189 
Q 282 3187 774 3834 
Q 1267 4480 2042 4480 
Q 2816 4480 3309 3827 
Q 3802 3181 3802 2189 
Q 3802 1203 3309 544 
Q 2816 -102 2042 -102 
Q 1267 -102 774 544 
Q 282 1203 282 2189 
z
M 3200 2189 
Q 3200 2944 2880 3430 
Q 2566 3917 2042 3917 
Q 1517 3917 1203 3430 
Q 883 2944 883 2189 
Q 883 1434 1203 941 
Q 1517 461 2042 461 
Q 2566 461 2880 947 
Q 3200 1440 3200 2189 
z
" transform="scale(0.015625)"/>
       </defs>
       <use xlink:href="#ProductSans-Regular-30"/>
      </g>
     </g>
    </g>
    <g id="xtick_2">
     <g id="line2d_3">
      <path d="M 202.39185 221.76 
L 202.39185 0 
" clip-path="url(#p3468cd98c5)" style="fill: none; stroke: #d3d3d3; stroke-width: 0.8; stroke-linecap: round"/>
     </g>
     <g id="line2d_4">
      <g>
       <use xlink:href="#m3d27e702dc" x="202.39185" y="221.76" style="fill: #808080; stroke: #808080"/>
      </g>
     </g>
     <g id="text_2">
      <!-- 20 -->
      <g style="fill: #808080" transform="translate(189.144688 246.44065) scale(0.2288 -0.2288)">
       <defs>
        <path id="ProductSans-Regular-32" d="M 3046 563 
L 3046 0 
L 256 0 
L 256 589 
L 1389 1734 
Q 1958 2317 2176 2608 
Q 2394 2899 2394 3219 
Q 2394 3507 2170 3712 
Q 1946 3917 1594 3917 
Q 1293 3917 1075 3737 
Q 858 3558 794 3302 
L 256 3520 
Q 384 3923 749 4201 
Q 1114 4480 1606 4480 
Q 2202 4480 2598 4115 
Q 2995 3750 2995 3219 
Q 2995 2586 2298 1850 
L 1018 563 
L 3046 563 
z
" transform="scale(0.015625)"/>
       </defs>
       <use xlink:href="#ProductSans-Regular-32"/>
       <use xlink:href="#ProductSans-Regular-30" transform="translate(51.999985 0)"/>
      </g>
     </g>
    </g>
    <g id="xtick_3">
     <g id="line2d_5">
      <path d="M 291.67185 221.76 
L 291.67185 0 
" clip-path="url(#p3468cd98c5)" style="fill: none; stroke: #d3d3d3; stroke-width: 0.8; stroke-linecap: round"/>
     </g>
     <g id="line2d_6">
      <g>
       <use xlink:href="#m3d27e702dc" x="291.67185" y="221.76" style="fill: #808080; stroke: #808080"/>
      </g>
     </g>
     <g id="text_3">
      <!-- 40 -->
      <g style="fill: #808080" transform="translate(277.634613 246.44065) scale(0.2288 -0.2288)">
       <defs>
        <path id="ProductSans-Regular-34" d="M 2925 922 
L 2925 0 
L 2336 0 
L 2336 922 
L 256 922 
L 256 1370 
L 2285 4378 
L 2925 4378 
L 2925 1472 
L 3488 1472 
L 3488 922 
L 2925 922 
z
M 922 1472 
L 2336 1472 
L 2336 3514 
L 2310 3514 
L 922 1472 
z
" transform="scale(0.015625)"/>
       </defs>
       <use xlink:href="#ProductSans-Regular-34"/>
       <use xlink:href="#ProductSans-Regular-30" transform="translate(58.899994 0)"/>
      </g>
     </g>
    </g>
    <g id="xtick_4">
     <g id="line2d_7">
      <path d="M 380.95185 221.76 
L 380.95185 0 
" clip-path="url(#p3468cd98c5)" style="fill: none; stroke: #d3d3d3; stroke-width: 0.8; stroke-linecap: round"/>
     </g>
     <g id="line2d_8">
      <g>
       <use xlink:href="#m3d27e702dc" x="380.95185" y="221.76" style="fill: #808080; stroke: #808080"/>
      </g>
     </g>
     <g id="text_4">
      <!-- 60 -->
      <g style="fill: #808080" transform="translate(367.372212 246.44065) scale(0.2288 -0.2288)">
       <defs>
        <path id="ProductSans-Regular-36" d="M 1888 2778 
Q 2419 2778 2835 2355 
Q 3258 1939 3258 1363 
Q 3258 774 2810 333 
Q 2355 -102 1760 -102 
Q 1126 -102 691 333 
Q 256 768 256 1363 
Q 256 1894 685 2573 
L 1958 4480 
L 2432 4154 
L 1350 2656 
L 1363 2643 
Q 1562 2778 1888 2778 
z
M 851 1357 
Q 851 979 1114 717 
Q 1376 461 1760 461 
Q 2144 461 2400 717 
Q 2662 979 2662 1357 
Q 2662 1728 2394 1990 
Q 2131 2253 1760 2253 
Q 1395 2253 1120 1990 
Q 851 1728 851 1357 
z
" transform="scale(0.015625)"/>
       </defs>
       <use xlink:href="#ProductSans-Regular-36"/>
       <use xlink:href="#ProductSans-Regular-30" transform="translate(54.899994 0)"/>
      </g>
     </g>
    </g>
    <g id="xtick_5">
     <g id="line2d_9">
      <path d="M 470.23185 221.76 
L 470.23185 0 
" clip-path="url(#p3468cd98c5)" style="fill: none; stroke: #d3d3d3; stroke-width: 0.8; stroke-linecap: round"/>
     </g>
     <g id="line2d_10">
      <g>
       <use xlink:href="#m3d27e702dc" x="470.23185" y="221.76" style="fill: #808080; stroke: #808080"/>
      </g>
     </g>
     <g id="text_5">
      <!-- 80 -->
      <g style="fill: #808080" transform="translate(456.709412 246.44065) scale(0.2288 -0.2288)">
       <defs>
        <path id="ProductSans-Regular-38" d="M 3226 1210 
Q 3226 646 2797 275 
Q 2362 -102 1741 -102 
Q 1120 -102 685 275 
Q 256 646 256 1210 
Q 256 1555 441 1840 
Q 627 2125 973 2291 
L 973 2317 
Q 717 2483 560 2726 
Q 403 2970 403 3238 
Q 403 3770 781 4128 
Q 1152 4480 1741 4480 
Q 2330 4480 2701 4128 
Q 3078 3770 3078 3238 
Q 3078 2970 2921 2726 
Q 2765 2483 2509 2317 
L 2509 2291 
Q 2854 2125 3040 1840 
Q 3226 1555 3226 1210 
z
M 1005 3251 
Q 1005 2944 1209 2755 
Q 1414 2566 1741 2566 
Q 2067 2566 2272 2755 
Q 2477 2944 2477 3251 
Q 2477 3558 2272 3737 
Q 2067 3917 1741 3917 
Q 1414 3917 1209 3737 
Q 1005 3558 1005 3251 
z
M 858 1242 
Q 858 1069 925 928 
Q 992 787 1110 681 
Q 1229 576 1389 518 
Q 1549 461 1741 461 
Q 1933 461 2093 518 
Q 2253 576 2371 681 
Q 2490 787 2557 928 
Q 2624 1069 2624 1242 
Q 2624 1574 2368 1792 
Q 2112 2016 1741 2016 
Q 1370 2016 1107 1792 
Q 858 1568 858 1242 
z
" transform="scale(0.015625)"/>
       </defs>
       <use xlink:href="#ProductSans-Regular-38"/>
       <use xlink:href="#ProductSans-Regular-30" transform="translate(54.399994 0)"/>
      </g>
     </g>
    </g>
    <g id="xtick_6">
     <g id="line2d_11">
      <path d="M 559.51185 221.76 
L 559.51185 0 
" clip-path="url(#p3468cd98c5)" style="fill: none; stroke: #d3d3d3; stroke-width: 0.8; stroke-linecap: round"/>
     </g>
     <g id="line2d_12">
      <g>
       <use xlink:href="#m3d27e702dc" x="559.51185" y="221.76" style="fill: #808080; stroke: #808080"/>
      </g>
     </g>
     <g id="text_6">
      <!-- 100 -->
      <g style="fill: #808080" transform="translate(540.52145 246.44065) scale(0.2288 -0.2288)">
       <defs>
        <path id="ProductSans-Regular-31" d="M 1920 4378 
L 1920 0 
L 1331 0 
L 1331 3648 
L 480 3277 
L 256 3776 
L 1542 4378 
L 1920 4378 
z
" transform="scale(0.015625)"/>
       </defs>
       <use xlink:href="#ProductSans-Regular-31"/>
       <use xlink:href="#ProductSans-Regular-30" transform="translate(38.399994 0)"/>
       <use xlink:href="#ProductSans-Regular-30" transform="translate(102.199982 0)"/>
      </g>
     </g>
    </g>
    <g id="text_7">
     <!-- Gaze Distribution (%) -->
     <g transform="translate(220.0236 273.2511) scale(0.2496 -0.2496)">
      <defs>
       <path id="ProductSans-Regular-47" d="M 4870 2106 
Q 4870 1146 4301 576 
Q 3661 -102 2618 -102 
Q 1619 -102 928 589 
Q 237 1280 237 2291 
Q 237 3302 928 3994 
Q 1619 4685 2618 4685 
Q 3123 4685 3571 4505 
Q 4019 4326 4307 4000 
L 3885 3578 
Q 3674 3834 3338 3978 
Q 3002 4122 2618 4122 
Q 1869 4122 1350 3603 
Q 838 3078 838 2291 
Q 838 1504 1350 979 
Q 1869 461 2618 461 
Q 3302 461 3757 845 
Q 4211 1229 4282 1901 
L 2618 1901 
L 2618 2451 
L 4838 2451 
Q 4870 2272 4870 2106 
z
" transform="scale(0.015625)"/>
       <path id="ProductSans-Regular-61" d="M 787 960 
Q 787 730 982 576 
Q 1178 422 1440 422 
Q 1811 422 2102 697 
Q 2394 973 2394 1344 
Q 2118 1562 1626 1562 
Q 1267 1562 1027 1389 
Q 787 1216 787 960 
z
M 1549 3238 
Q 2202 3238 2579 2889 
Q 2957 2541 2957 1933 
L 2957 0 
L 2394 0 
L 2394 435 
L 2368 435 
Q 2003 -102 1395 -102 
Q 877 -102 528 205 
Q 179 512 179 973 
Q 179 1459 547 1747 
Q 915 2035 1530 2035 
Q 2054 2035 2394 1843 
L 2394 1978 
Q 2394 2285 2150 2499 
Q 1907 2714 1581 2714 
Q 1088 2714 800 2298 
L 282 2624 
Q 710 3238 1549 3238 
z
" transform="scale(0.015625)"/>
       <path id="ProductSans-Regular-7a" d="M 2739 0 
L 205 0 
L 205 512 
L 1990 2598 
L 256 2598 
L 256 3136 
L 2714 3136 
L 2714 2624 
L 928 538 
L 2739 538 
L 2739 0 
z
" transform="scale(0.015625)"/>
       <path id="ProductSans-Regular-65" d="M 1766 -102 
Q 1075 -102 627 371 
Q 179 845 179 1568 
Q 179 2285 614 2761 
Q 1050 3238 1728 3238 
Q 2426 3238 2838 2787 
Q 3251 2336 3251 1523 
L 3245 1459 
L 781 1459 
Q 794 998 1088 716 
Q 1382 435 1792 435 
Q 2355 435 2675 998 
L 3200 742 
Q 2989 346 2614 122 
Q 2240 -102 1766 -102 
z
M 826 1946 
L 2624 1946 
Q 2598 2272 2358 2486 
Q 2118 2701 1715 2701 
Q 1382 2701 1142 2496 
Q 902 2291 826 1946 
z
" transform="scale(0.015625)"/>
       <path id="ProductSans-Regular-20" transform="scale(0.015625)"/>
       <path id="ProductSans-Regular-44" d="M 461 0 
L 461 4582 
L 1862 4582 
Q 2912 4582 3549 3948 
Q 4186 3315 4186 2291 
Q 4186 1261 3549 630 
Q 2912 0 1862 0 
L 461 0 
z
M 1050 4019 
L 1050 563 
L 1862 563 
Q 2662 563 3123 1020 
Q 3584 1478 3584 2291 
Q 3584 3098 3123 3558 
Q 2662 4019 1862 4019 
L 1050 4019 
z
" transform="scale(0.015625)"/>
       <path id="ProductSans-Regular-69" d="M 1120 4218 
Q 1120 4045 998 3923 
Q 877 3802 704 3802 
Q 531 3802 409 3923 
Q 288 4045 288 4218 
Q 288 4390 409 4512 
Q 531 4634 704 4634 
Q 877 4634 998 4512 
Q 1120 4390 1120 4218 
z
M 998 3136 
L 998 0 
L 410 0 
L 410 3136 
L 998 3136 
z
" transform="scale(0.015625)"/>
       <path id="ProductSans-Regular-73" d="M 2758 870 
Q 2758 461 2400 179 
Q 2042 -102 1498 -102 
Q 1024 -102 665 144 
Q 307 390 154 794 
L 678 1018 
Q 794 736 1014 579 
Q 1235 422 1498 422 
Q 1779 422 1968 544 
Q 2157 666 2157 832 
Q 2157 1133 1696 1274 
L 1158 1408 
Q 243 1638 243 2291 
Q 243 2720 592 2979 
Q 941 3238 1485 3238 
Q 1901 3238 2237 3040 
Q 2573 2842 2707 2509 
L 2182 2291 
Q 2093 2490 1891 2602 
Q 1690 2714 1440 2714 
Q 1210 2714 1027 2598 
Q 845 2483 845 2317 
Q 845 2048 1350 1933 
L 1824 1811 
Q 2758 1581 2758 870 
z
" transform="scale(0.015625)"/>
       <path id="ProductSans-Regular-74" d="M 1600 -51 
Q 1216 -51 963 185 
Q 710 422 704 845 
L 704 2598 
L 154 2598 
L 154 3136 
L 704 3136 
L 704 4096 
L 1293 4096 
L 1293 3136 
L 2061 3136 
L 2061 2598 
L 1293 2598 
L 1293 1037 
Q 1293 723 1414 611 
Q 1536 499 1690 499 
Q 1760 499 1827 515 
Q 1894 531 1952 557 
L 2138 32 
Q 1907 -51 1600 -51 
z
" transform="scale(0.015625)"/>
       <path id="ProductSans-Regular-72" d="M 947 0 
L 358 0 
L 358 3136 
L 922 3136 
L 922 2624 
L 947 2624 
Q 1037 2874 1315 3050 
Q 1594 3226 1862 3226 
Q 2118 3226 2298 3149 
L 2118 2579 
Q 2010 2624 1773 2624 
Q 1440 2624 1193 2355 
Q 947 2086 947 1728 
L 947 0 
z
" transform="scale(0.015625)"/>
       <path id="ProductSans-Regular-62" d="M 2016 -102 
Q 1670 -102 1385 45 
Q 1101 192 947 435 
L 922 435 
L 922 0 
L 358 0 
L 358 4582 
L 947 4582 
L 947 3136 
L 922 2701 
L 947 2701 
Q 1101 2944 1385 3091 
Q 1670 3238 2016 3238 
Q 2637 3238 3066 2752 
Q 3507 2259 3507 1568 
Q 3507 870 3066 384 
Q 2637 -102 2016 -102 
z
M 1920 435 
Q 2342 435 2630 755 
Q 2918 1069 2918 1568 
Q 2918 2061 2630 2381 
Q 2342 2701 1920 2701 
Q 1491 2701 1203 2381 
Q 922 2061 922 1568 
Q 922 1069 1203 749 
Q 1491 435 1920 435 
z
" transform="scale(0.015625)"/>
       <path id="ProductSans-Regular-75" d="M 3110 0 
L 2547 0 
L 2547 435 
L 2522 435 
Q 2387 205 2108 51 
Q 1830 -102 1530 -102 
Q 954 -102 643 227 
Q 333 557 333 1165 
L 333 3136 
L 922 3136 
L 922 1203 
Q 941 435 1696 435 
Q 2048 435 2285 720 
Q 2522 1005 2522 1402 
L 2522 3136 
L 3110 3136 
L 3110 0 
z
" transform="scale(0.015625)"/>
       <path id="ProductSans-Regular-6f" d="M 179 1568 
Q 179 2291 634 2765 
Q 1094 3238 1792 3238 
Q 2490 3238 2944 2765 
Q 3405 2291 3405 1568 
Q 3405 838 2944 371 
Q 2490 -102 1792 -102 
Q 1094 -102 634 371 
Q 179 845 179 1568 
z
M 768 1568 
Q 768 1062 1062 749 
Q 1357 435 1792 435 
Q 2227 435 2522 749 
Q 2816 1062 2816 1568 
Q 2816 2067 2522 2381 
Q 2221 2701 1792 2701 
Q 1363 2701 1062 2381 
Q 768 2067 768 1568 
z
" transform="scale(0.015625)"/>
       <path id="ProductSans-Regular-6e" d="M 358 3136 
L 922 3136 
L 922 2701 
L 947 2701 
Q 1082 2931 1360 3084 
Q 1638 3238 1939 3238 
Q 2515 3238 2825 2908 
Q 3136 2579 3136 1971 
L 3136 0 
L 2547 0 
L 2547 1933 
Q 2528 2701 1773 2701 
Q 1421 2701 1184 2416 
Q 947 2131 947 1734 
L 947 0 
L 358 0 
L 358 3136 
z
" transform="scale(0.015625)"/>
       <path id="ProductSans-Regular-28" d="M 1984 4685 
Q 1542 4160 1267 3443 
Q 998 2739 998 2061 
Q 998 1376 1267 678 
Q 1542 -38 1984 -563 
L 1549 -870 
Q 1018 -250 710 512 
Q 410 1299 410 2061 
Q 410 2829 710 3603 
Q 1011 4365 1549 4992 
L 1984 4685 
z
" transform="scale(0.015625)"/>
       <path id="ProductSans-Regular-25" d="M 2394 3386 
Q 2394 2938 2067 2611 
Q 1747 2291 1299 2291 
Q 858 2291 525 2611 
Q 205 2944 205 3386 
Q 205 3834 525 4154 
Q 851 4480 1299 4480 
Q 1747 4480 2067 4154 
Q 2394 3834 2394 3386 
z
M 4205 4186 
L 1363 -51 
L 998 186 
L 3846 4429 
L 4205 4186 
z
M 1920 3386 
Q 1920 3674 1744 3862 
Q 1568 4051 1299 4051 
Q 1037 4051 858 3859 
Q 678 3674 678 3386 
Q 678 3098 858 2912 
Q 1037 2720 1299 2720 
Q 1568 2720 1744 2909 
Q 1920 3098 1920 3386 
z
M 5005 992 
Q 5005 544 4678 218 
Q 4358 -102 3910 -102 
Q 3469 -102 3136 218 
Q 2816 550 2816 992 
Q 2816 1440 3136 1760 
Q 3462 2086 3910 2086 
Q 4358 2086 4678 1760 
Q 5005 1440 5005 992 
z
M 4531 992 
Q 4531 1280 4355 1469 
Q 4179 1658 3910 1658 
Q 3648 1658 3469 1466 
Q 3290 1280 3290 992 
Q 3290 704 3469 518 
Q 3648 326 3910 326 
Q 4179 326 4355 515 
Q 4531 704 4531 992 
z
" transform="scale(0.015625)"/>
       <path id="ProductSans-Regular-29" d="M 563 4992 
Q 832 4685 1040 4339 
Q 1248 3994 1395 3603 
Q 1702 2835 1702 2061 
Q 1702 1286 1395 512 
Q 1101 -243 563 -870 
L 128 -563 
Q 570 -38 845 678 
Q 1114 1376 1114 2061 
Q 1114 2739 845 3443 
Q 570 4160 128 4685 
L 563 4992 
z
" transform="scale(0.015625)"/>
      </defs>
      <use xlink:href="#ProductSans-Regular-47"/>
      <use xlink:href="#ProductSans-Regular-61" transform="translate(80.099991 0)"/>
      <use xlink:href="#ProductSans-Regular-7a" transform="translate(131.099976 0)"/>
      <use xlink:href="#ProductSans-Regular-65" transform="translate(177.09996 0)"/>
      <use xlink:href="#ProductSans-Regular-20" transform="translate(230.699951 0)"/>
      <use xlink:href="#ProductSans-Regular-44" transform="translate(252.699936 0)"/>
      <use xlink:href="#ProductSans-Regular-69" transform="translate(321.799927 0)"/>
      <use xlink:href="#ProductSans-Regular-73" transform="translate(343.799911 0)"/>
      <use xlink:href="#ProductSans-Regular-74" transform="translate(389.299896 0)"/>
      <use xlink:href="#ProductSans-Regular-72" transform="translate(424.69989 0)"/>
      <use xlink:href="#ProductSans-Regular-69" transform="translate(460.999878 0)"/>
      <use xlink:href="#ProductSans-Regular-62" transform="translate(482.999863 0)"/>
      <use xlink:href="#ProductSans-Regular-75" transform="translate(540.599854 0)"/>
      <use xlink:href="#ProductSans-Regular-74" transform="translate(594.79985 0)"/>
      <use xlink:href="#ProductSans-Regular-69" transform="translate(630.199844 0)"/>
      <use xlink:href="#ProductSans-Regular-6f" transform="translate(652.199829 0)"/>
      <use xlink:href="#ProductSans-Regular-6e" transform="translate(708.199814 0)"/>
      <use xlink:href="#ProductSans-Regular-20" transform="translate(762.399811 0)"/>
      <use xlink:href="#ProductSans-Regular-28" transform="translate(784.399796 0)"/>
      <use xlink:href="#ProductSans-Regular-25" transform="translate(817.39978 0)"/>
      <use xlink:href="#ProductSans-Regular-29" transform="translate(898.799774 0)"/>
     </g>
    </g>
   </g>
   <g id="matplotlib.axis_2">
    <g id="ytick_1">
     <g id="line2d_13">
      <defs>
       <path id="m7e9d9a9ec8" d="M 0 0 
L -4.8 0 
" style="stroke: #808080"/>
      </defs>
      <g>
       <use xlink:href="#m7e9d9a9ec8" x="113.11185" y="36.96" style="fill: #808080; stroke: #808080"/>
      </g>
     </g>
     <g id="text_8">
      <!-- Distracted -->
      <g style="fill: #808080" transform="translate(0 45.150325) scale(0.2288 -0.2288)">
       <defs>
        <path id="ProductSans-Regular-63" d="M 1792 -102 
Q 1094 -102 634 371 
Q 179 858 179 1568 
Q 179 2291 634 2765 
Q 1094 3238 1792 3238 
Q 2272 3238 2630 2998 
Q 2989 2758 3168 2336 
L 2630 2112 
Q 2381 2701 1754 2701 
Q 1350 2701 1056 2374 
Q 768 2048 768 1568 
Q 768 1088 1056 762 
Q 1350 435 1754 435 
Q 2400 435 2662 1024 
L 3187 800 
Q 3014 378 2646 138 
Q 2278 -102 1792 -102 
z
" transform="scale(0.015625)"/>
        <path id="ProductSans-Regular-64" d="M 1766 435 
Q 2202 435 2477 749 
Q 2765 1062 2765 1568 
Q 2765 2061 2477 2381 
Q 2195 2701 1766 2701 
Q 1344 2701 1056 2381 
Q 768 2061 768 1568 
Q 768 1069 1056 755 
Q 1344 435 1766 435 
z
M 1670 -102 
Q 1056 -102 614 384 
Q 179 877 179 1568 
Q 179 2259 614 2752 
Q 1056 3238 1670 3238 
Q 2016 3238 2301 3091 
Q 2586 2944 2739 2701 
L 2765 2701 
L 2739 3136 
L 2739 4582 
L 3328 4582 
L 3328 0 
L 2765 0 
L 2765 435 
L 2739 435 
Q 2586 192 2301 45 
Q 2016 -102 1670 -102 
z
" transform="scale(0.015625)"/>
       </defs>
       <use xlink:href="#ProductSans-Regular-44"/>
       <use xlink:href="#ProductSans-Regular-69" transform="translate(69.099991 0)"/>
       <use xlink:href="#ProductSans-Regular-73" transform="translate(91.099976 0)"/>
       <use xlink:href="#ProductSans-Regular-74" transform="translate(136.59996 0)"/>
       <use xlink:href="#ProductSans-Regular-72" transform="translate(171.999954 0)"/>
       <use xlink:href="#ProductSans-Regular-61" transform="translate(208.299942 0)"/>
       <use xlink:href="#ProductSans-Regular-63" transform="translate(259.299927 0)"/>
       <use xlink:href="#ProductSans-Regular-74" transform="translate(311.499924 0)"/>
       <use xlink:href="#ProductSans-Regular-65" transform="translate(346.899918 0)"/>
       <use xlink:href="#ProductSans-Regular-64" transform="translate(400.499908 0)"/>
      </g>
     </g>
    </g>
    <g id="ytick_2">
     <g id="line2d_14">
      <g>
       <use xlink:href="#m7e9d9a9ec8" x="113.11185" y="110.88" style="fill: #808080; stroke: #808080"/>
      </g>
     </g>
     <g id="text_9">
      <!-- Subtitle -->
      <g style="fill: #808080" transform="translate(28.4141 119.070325) scale(0.2288 -0.2288)">
       <defs>
        <path id="ProductSans-Regular-53" d="M 3290 1222 
Q 3290 621 2848 256 
Q 2400 -102 1760 -102 
Q 1190 -102 755 230 
Q 320 563 154 1139 
L 717 1370 
Q 774 1165 876 998 
Q 979 832 1116 713 
Q 1254 595 1420 528 
Q 1587 461 1773 461 
Q 2176 461 2432 669 
Q 2688 877 2688 1222 
Q 2688 1510 2477 1715 
Q 2278 1914 1734 2099 
Q 1184 2298 1050 2368 
Q 320 2739 320 3462 
Q 320 3968 723 4326 
Q 1133 4685 1728 4685 
Q 2253 4685 2637 4416 
Q 3021 4154 3149 3757 
L 2598 3526 
Q 2522 3782 2294 3952 
Q 2067 4122 1741 4122 
Q 1395 4122 1158 3930 
Q 922 3750 922 3462 
Q 922 3226 1107 3053 
Q 1312 2880 1997 2643 
Q 2694 2406 2992 2064 
Q 3290 1722 3290 1222 
z
" transform="scale(0.015625)"/>
        <path id="ProductSans-Regular-6c" d="M 947 4582 
L 947 0 
L 358 0 
L 358 4582 
L 947 4582 
z
" transform="scale(0.015625)"/>
       </defs>
       <use xlink:href="#ProductSans-Regular-53"/>
       <use xlink:href="#ProductSans-Regular-75" transform="translate(55.299988 0)"/>
       <use xlink:href="#ProductSans-Regular-62" transform="translate(109.499985 0)"/>
       <use xlink:href="#ProductSans-Regular-74" transform="translate(167.099976 0)"/>
       <use xlink:href="#ProductSans-Regular-69" transform="translate(202.499969 0)"/>
       <use xlink:href="#ProductSans-Regular-74" transform="translate(224.499954 0)"/>
       <use xlink:href="#ProductSans-Regular-6c" transform="translate(259.899948 0)"/>
       <use xlink:href="#ProductSans-Regular-65" transform="translate(280.299942 0)"/>
      </g>
     </g>
    </g>
    <g id="ytick_3">
     <g id="line2d_15">
      <g>
       <use xlink:href="#m7e9d9a9ec8" x="113.11185" y="184.8" style="fill: #808080; stroke: #808080"/>
      </g>
     </g>
     <g id="text_10">
      <!-- Video -->
      <g style="fill: #808080" transform="translate(47.064875 192.990325) scale(0.2288 -0.2288)">
       <defs>
        <path id="ProductSans-Regular-56" d="M 2304 0 
L 1690 0 
L 77 4582 
L 730 4582 
L 1984 864 
L 2010 864 
L 3315 4582 
L 3968 4582 
L 2304 0 
z
" transform="scale(0.015625)"/>
       </defs>
       <use xlink:href="#ProductSans-Regular-56"/>
       <use xlink:href="#ProductSans-Regular-69" transform="translate(63.199997 0)"/>
       <use xlink:href="#ProductSans-Regular-64" transform="translate(85.199982 0)"/>
       <use xlink:href="#ProductSans-Regular-65" transform="translate(142.799973 0)"/>
       <use xlink:href="#ProductSans-Regular-6f" transform="translate(196.399963 0)"/>
      </g>
     </g>
    </g>
   </g>
   <g id="patch_5">
    <path d="M 113.11185 221.76 
L 559.51185 221.76 
" style="fill: none; stroke: #d3d3d3; stroke-linejoin: miter; stroke-linecap: square"/>
   </g>
   <g id="PathCollection_1">
    <defs>
     <path id="C0_0_b0f79b65e8" d="M 0 4 
C 1.060812 4 2.078319 3.578535 2.828427 2.828427 
C 3.578535 2.078319 4 1.060812 4 -0 
C 4 -1.060812 3.578535 -2.078319 2.828427 -2.828427 
C 2.078319 -3.578535 1.060812 -4 0 -4 
C -1.060812 -4 -2.078319 -3.578535 -2.828427 -2.828427 
C -3.578535 -2.078319 -4 -1.060812 -4 0 
C -4 1.060812 -3.578535 2.078319 -2.828427 2.828427 
C -2.078319 3.578535 -1.060812 4 0 4 
z
"/>
    </defs>
    <g clip-path="url(#p3468cd98c5)">
     <use xlink:href="#C0_0_b0f79b65e8" x="175.367044" y="29.786994" style="fill: #2b737e"/>
    </g>
    <g clip-path="url(#p3468cd98c5)">
     <use xlink:href="#C0_0_b0f79b65e8" x="172.686266" y="35.153081" style="fill: #2b737e"/>
    </g>
    <g clip-path="url(#p3468cd98c5)">
     <use xlink:href="#C0_0_b0f79b65e8" x="176.939369" y="30.534853" style="fill: #2b737e"/>
    </g>
    <g clip-path="url(#p3468cd98c5)">
     <use xlink:href="#C0_0_b0f79b65e8" x="176.42628" y="41.637132" style="fill: #2b737e"/>
    </g>
    <g clip-path="url(#p3468cd98c5)">
     <use xlink:href="#C0_0_b0f79b65e8" x="160.319837" y="41.446761" style="fill: #2b737e"/>
    </g>
    <g clip-path="url(#p3468cd98c5)">
     <use xlink:href="#C0_0_b0f79b65e8" x="188.532262" y="39.75681" style="fill: #2b737e"/>
    </g>
    <g clip-path="url(#p3468cd98c5)">
     <use xlink:href="#C0_0_b0f79b65e8" x="163.381225" y="34.628434" style="fill: #2b737e"/>
    </g>
    <g clip-path="url(#p3468cd98c5)">
     <use xlink:href="#C0_0_b0f79b65e8" x="189.762017" y="35.944215" style="fill: #2b737e"/>
    </g>
    <g clip-path="url(#p3468cd98c5)">
     <use xlink:href="#C0_0_b0f79b65e8" x="176.396364" y="43.500551" style="fill: #2b737e"/>
    </g>
    <g clip-path="url(#p3468cd98c5)">
     <use xlink:href="#C0_0_b0f79b65e8" x="177.467195" y="39.541934" style="fill: #2b737e"/>
    </g>
    <g clip-path="url(#p3468cd98c5)">
     <use xlink:href="#C0_0_b0f79b65e8" x="162.242322" y="34.555458" style="fill: #2b737e"/>
    </g>
    <g clip-path="url(#p3468cd98c5)">
     <use xlink:href="#C0_0_b0f79b65e8" x="177.448679" y="33.34745" style="fill: #2b737e"/>
    </g>
    <g clip-path="url(#p3468cd98c5)">
     <use xlink:href="#C0_0_b0f79b65e8" x="162.797811" y="34.930115" style="fill: #2b737e"/>
    </g>
    <g clip-path="url(#p3468cd98c5)">
     <use xlink:href="#C0_0_b0f79b65e8" x="161.563571" y="43.416065" style="fill: #2b737e"/>
    </g>
    <g clip-path="url(#p3468cd98c5)">
     <use xlink:href="#C0_0_b0f79b65e8" x="170.193749" y="35.415332" style="fill: #2b737e"/>
    </g>
    <g clip-path="url(#p3468cd98c5)">
     <use xlink:href="#C0_0_b0f79b65e8" x="170.58704" y="35.216189" style="fill: #2b737e"/>
    </g>
    <g clip-path="url(#p3468cd98c5)">
     <use xlink:href="#C0_0_b0f79b65e8" x="167.230542" y="32.468049" style="fill: #2b737e"/>
    </g>
    <g clip-path="url(#p3468cd98c5)">
     <use xlink:href="#C0_0_b0f79b65e8" x="169.50645" y="36.342347" style="fill: #2b737e"/>
    </g>
    <g clip-path="url(#p3468cd98c5)">
     <use xlink:href="#C0_0_b0f79b65e8" x="156.592831" y="40.87629" style="fill: #2b737e"/>
    </g>
    <g clip-path="url(#p3468cd98c5)">
     <use xlink:href="#C0_0_b0f79b65e8" x="187.082568" y="43.113116" style="fill: #2b737e"/>
    </g>
    <g clip-path="url(#p3468cd98c5)">
     <use xlink:href="#C0_0_b0f79b65e8" x="189.412744" y="40.724995" style="fill: #2b737e"/>
    </g>
    <g clip-path="url(#p3468cd98c5)">
     <use xlink:href="#C0_0_b0f79b65e8" x="137.670846" y="44.069941" style="fill: #2b737e"/>
    </g>
    <g clip-path="url(#p3468cd98c5)">
     <use xlink:href="#C0_0_b0f79b65e8" x="170.797801" y="40.269067" style="fill: #2b737e"/>
    </g>
    <g clip-path="url(#p3468cd98c5)">
     <use xlink:href="#C0_0_b0f79b65e8" x="134.828243" y="35.185363" style="fill: #2b737e"/>
    </g>
   </g>
   <g id="PathCollection_2">
    <defs>
     <path id="C1_0_445d3f3a30" d="M 0 4 
C 1.060812 4 2.078319 3.578535 2.828427 2.828427 
C 3.578535 2.078319 4 1.060812 4 -0 
C 4 -1.060812 3.578535 -2.078319 2.828427 -2.828427 
C 2.078319 -3.578535 1.060812 -4 0 -4 
C -1.060812 -4 -2.078319 -3.578535 -2.828427 -2.828427 
C -3.578535 -2.078319 -4 -1.060812 -4 0 
C -4 1.060812 -3.578535 2.078319 -2.828427 2.828427 
C -2.078319 3.578535 -1.060812 4 0 4 
z
"/>
    </defs>
    <g clip-path="url(#p3468cd98c5)">
     <use xlink:href="#C1_0_445d3f3a30" x="375.797204" y="113.2165" style="fill: #5ea04b"/>
    </g>
    <g clip-path="url(#p3468cd98c5)">
     <use xlink:href="#C1_0_445d3f3a30" x="367.960711" y="108.0754" style="fill: #5ea04b"/>
    </g>
    <g clip-path="url(#p3468cd98c5)">
     <use xlink:href="#C1_0_445d3f3a30" x="400.335218" y="115.419989" style="fill: #5ea04b"/>
    </g>
    <g clip-path="url(#p3468cd98c5)">
     <use xlink:href="#C1_0_445d3f3a30" x="404.653037" y="114.701689" style="fill: #5ea04b"/>
    </g>
    <g clip-path="url(#p3468cd98c5)">
     <use xlink:href="#C1_0_445d3f3a30" x="425.370951" y="103.627839" style="fill: #5ea04b"/>
    </g>
    <g clip-path="url(#p3468cd98c5)">
     <use xlink:href="#C1_0_445d3f3a30" x="375.907744" y="103.655158" style="fill: #5ea04b"/>
    </g>
    <g clip-path="url(#p3468cd98c5)">
     <use xlink:href="#C1_0_445d3f3a30" x="367.333777" y="118.265532" style="fill: #5ea04b"/>
    </g>
    <g clip-path="url(#p3468cd98c5)">
     <use xlink:href="#C1_0_445d3f3a30" x="393.323273" y="113.880158" style="fill: #5ea04b"/>
    </g>
    <g clip-path="url(#p3468cd98c5)">
     <use xlink:href="#C1_0_445d3f3a30" x="373.316992" y="109.2737" style="fill: #5ea04b"/>
    </g>
    <g clip-path="url(#p3468cd98c5)">
     <use xlink:href="#C1_0_445d3f3a30" x="400.481739" y="114.304871" style="fill: #5ea04b"/>
    </g>
    <g clip-path="url(#p3468cd98c5)">
     <use xlink:href="#C1_0_445d3f3a30" x="381.532046" y="110.456221" style="fill: #5ea04b"/>
    </g>
    <g clip-path="url(#p3468cd98c5)">
     <use xlink:href="#C1_0_445d3f3a30" x="441.198913" y="108.59969" style="fill: #5ea04b"/>
    </g>
    <g clip-path="url(#p3468cd98c5)">
     <use xlink:href="#C1_0_445d3f3a30" x="351.853535" y="115.453448" style="fill: #5ea04b"/>
    </g>
    <g clip-path="url(#p3468cd98c5)">
     <use xlink:href="#C1_0_445d3f3a30" x="405.528176" y="113.694411" style="fill: #5ea04b"/>
    </g>
    <g clip-path="url(#p3468cd98c5)">
     <use xlink:href="#C1_0_445d3f3a30" x="304.845373" y="110.697773" style="fill: #5ea04b"/>
    </g>
    <g clip-path="url(#p3468cd98c5)">
     <use xlink:href="#C1_0_445d3f3a30" x="432.610547" y="111.645183" style="fill: #5ea04b"/>
    </g>
    <g clip-path="url(#p3468cd98c5)">
     <use xlink:href="#C1_0_445d3f3a30" x="405.324056" y="117.006245" style="fill: #5ea04b"/>
    </g>
    <g clip-path="url(#p3468cd98c5)">
     <use xlink:href="#C1_0_445d3f3a30" x="351.488405" y="111.122598" style="fill: #5ea04b"/>
    </g>
    <g clip-path="url(#p3468cd98c5)">
     <use xlink:href="#C1_0_445d3f3a30" x="322.867697" y="109.557088" style="fill: #5ea04b"/>
    </g>
    <g clip-path="url(#p3468cd98c5)">
     <use xlink:href="#C1_0_445d3f3a30" x="366.407461" y="112.77557" style="fill: #5ea04b"/>
    </g>
    <g clip-path="url(#p3468cd98c5)">
     <use xlink:href="#C1_0_445d3f3a30" x="343.736257" y="116.106296" style="fill: #5ea04b"/>
    </g>
    <g clip-path="url(#p3468cd98c5)">
     <use xlink:href="#C1_0_445d3f3a30" x="425.279677" y="118.248881" style="fill: #5ea04b"/>
    </g>
    <g clip-path="url(#p3468cd98c5)">
     <use xlink:href="#C1_0_445d3f3a30" x="375.648318" y="106.413931" style="fill: #5ea04b"/>
    </g>
    <g clip-path="url(#p3468cd98c5)">
     <use xlink:href="#C1_0_445d3f3a30" x="320.936037" y="112.587071" style="fill: #5ea04b"/>
    </g>
   </g>
   <g id="PathCollection_3">
    <defs>
     <path id="C2_0_3e5604b853" d="M 0 4 
C 1.060812 4 2.078319 3.578535 2.828427 2.828427 
C 3.578535 2.078319 4 1.060812 4 -0 
C 4 -1.060812 3.578535 -2.078319 2.828427 -2.828427 
C 2.078319 -3.578535 1.060812 -4 0 -4 
C -1.060812 -4 -2.078319 -3.578535 -2.828427 -2.828427 
C -3.578535 -2.078319 -4 -1.060812 -4 0 
C -4 1.060812 -3.578535 2.078319 -2.828427 2.828427 
C -2.078319 3.578535 -1.060812 4 0 4 
z
"/>
    </defs>
    <g clip-path="url(#p3468cd98c5)">
     <use xlink:href="#C2_0_3e5604b853" x="205.565005" y="182.365619" style="fill: #bdab62"/>
    </g>
    <g clip-path="url(#p3468cd98c5)">
     <use xlink:href="#C2_0_3e5604b853" x="238.963669" y="182.159607" style="fill: #bdab62"/>
    </g>
    <g clip-path="url(#p3468cd98c5)">
     <use xlink:href="#C2_0_3e5604b853" x="201.330834" y="184.982426" style="fill: #bdab62"/>
    </g>
    <g clip-path="url(#p3468cd98c5)">
     <use xlink:href="#C2_0_3e5604b853" x="198.270415" y="180.310898" style="fill: #bdab62"/>
    </g>
    <g clip-path="url(#p3468cd98c5)">
     <use xlink:href="#C2_0_3e5604b853" x="182.079123" y="189.817728" style="fill: #bdab62"/>
    </g>
    <g clip-path="url(#p3468cd98c5)">
     <use xlink:href="#C2_0_3e5604b853" x="210.566389" y="183.302077" style="fill: #bdab62"/>
    </g>
    <g clip-path="url(#p3468cd98c5)">
     <use xlink:href="#C2_0_3e5604b853" x="215.347425" y="183.350397" style="fill: #bdab62"/>
    </g>
    <g clip-path="url(#p3468cd98c5)">
     <use xlink:href="#C2_0_3e5604b853" x="197.485472" y="191.287011" style="fill: #bdab62"/>
    </g>
    <g clip-path="url(#p3468cd98c5)">
     <use xlink:href="#C2_0_3e5604b853" x="181.503762" y="187.834581" style="fill: #bdab62"/>
    </g>
    <g clip-path="url(#p3468cd98c5)">
     <use xlink:href="#C2_0_3e5604b853" x="198.672293" y="180.756941" style="fill: #bdab62"/>
    </g>
    <g clip-path="url(#p3468cd98c5)">
     <use xlink:href="#C2_0_3e5604b853" x="190.68407" y="180.99079" style="fill: #bdab62"/>
    </g>
    <g clip-path="url(#p3468cd98c5)">
     <use xlink:href="#C2_0_3e5604b853" x="159.431139" y="179.175972" style="fill: #bdab62"/>
    </g>
    <g clip-path="url(#p3468cd98c5)">
     <use xlink:href="#C2_0_3e5604b853" x="208.872639" y="177.798434" style="fill: #bdab62"/>
    </g>
    <g clip-path="url(#p3468cd98c5)">
     <use xlink:href="#C2_0_3e5604b853" x="181.01803" y="179.914468" style="fill: #bdab62"/>
    </g>
    <g clip-path="url(#p3468cd98c5)">
     <use xlink:href="#C2_0_3e5604b853" x="270.75994" y="184.302514" style="fill: #bdab62"/>
    </g>
    <g clip-path="url(#p3468cd98c5)">
     <use xlink:href="#C2_0_3e5604b853" x="162.150277" y="192.083679" style="fill: #bdab62"/>
    </g>
    <g clip-path="url(#p3468cd98c5)">
     <use xlink:href="#C2_0_3e5604b853" x="173.654566" y="185.560678" style="fill: #bdab62"/>
    </g>
    <g clip-path="url(#p3468cd98c5)">
     <use xlink:href="#C2_0_3e5604b853" x="235.065381" y="186.388132" style="fill: #bdab62"/>
    </g>
    <g clip-path="url(#p3468cd98c5)">
     <use xlink:href="#C2_0_3e5604b853" x="253.446493" y="183.42343" style="fill: #bdab62"/>
    </g>
    <g clip-path="url(#p3468cd98c5)">
     <use xlink:href="#C2_0_3e5604b853" x="221.559375" y="190.229323" style="fill: #bdab62"/>
    </g>
    <g clip-path="url(#p3468cd98c5)">
     <use xlink:href="#C2_0_3e5604b853" x="239.487884" y="181.385742" style="fill: #bdab62"/>
    </g>
    <g clip-path="url(#p3468cd98c5)">
     <use xlink:href="#C2_0_3e5604b853" x="184.375217" y="189.114452" style="fill: #bdab62"/>
    </g>
    <g clip-path="url(#p3468cd98c5)">
     <use xlink:href="#C2_0_3e5604b853" x="192.386521" y="178.421687" style="fill: #bdab62"/>
    </g>
    <g clip-path="url(#p3468cd98c5)">
     <use xlink:href="#C2_0_3e5604b853" x="189.518438" y="185.160924" style="fill: #bdab62"/>
    </g>
   </g>
   <g id="line2d_16">
    <defs>
     <path id="m28cd59a92d" d="M 0 2.5 
C 0.663008 2.5 1.29895 2.236584 1.767767 1.767767 
C 2.236584 1.29895 2.5 0.663008 2.5 0 
C 2.5 -0.663008 2.236584 -1.29895 1.767767 -1.767767 
C 1.29895 -2.236584 0.663008 -2.5 0 -2.5 
C -0.663008 -2.5 -1.29895 -2.236584 -1.767767 -1.767767 
C -2.236584 -1.29895 -2.5 -0.663008 -2.5 0 
C -2.5 0.663008 -2.236584 1.29895 -1.767767 1.767767 
C -1.29895 2.236584 -0.663008 2.5 0 2.5 
z
" style="stroke: #262626; stroke-width: 3"/>
    </defs>
    <g clip-path="url(#p3468cd98c5)">
     <use xlink:href="#m28cd59a92d" x="169.801377" y="36.96" style="fill: #262626; stroke: #262626; stroke-width: 3"/>
    </g>
   </g>
   <g id="line2d_17">
    <path d="M 164.017672 36.96 
L 175.0706 36.96 
" clip-path="url(#p3468cd98c5)" style="fill: none; stroke: #262626; stroke-width: 2.16; stroke-linecap: round"/>
   </g>
   <g id="line2d_18">
    <path clip-path="url(#p3468cd98c5)" style="fill: none; stroke: #262626; stroke-width: 2.16; stroke-linecap: round"/>
   </g>
   <g id="line2d_19">
    <path clip-path="url(#p3468cd98c5)" style="fill: none; stroke: #262626; stroke-width: 2.16; stroke-linecap: round"/>
   </g>
   <g id="line2d_20">
    <defs>
     <path id="m0b5a0a474a" d="M 0 2.5 
C 0.663008 2.5 1.29895 2.236584 1.767767 1.767767 
C 2.236584 1.29895 2.5 0.663008 2.5 0 
C 2.5 -0.663008 2.236584 -1.29895 1.767767 -1.767767 
C 1.29895 -2.236584 0.663008 -2.5 0 -2.5 
C -0.663008 -2.5 -1.29895 -2.236584 -1.767767 -1.767767 
C -2.236584 -1.29895 -2.5 -0.663008 -2.5 0 
C -2.5 0.663008 -2.236584 1.29895 -1.767767 1.767767 
C -1.29895 2.236584 -0.663008 2.5 0 2.5 
z
" style="stroke: #131313; stroke-width: 3"/>
    </defs>
    <g clip-path="url(#p3468cd98c5)">
     <use xlink:href="#m0b5a0a474a" x="379.739048" y="110.88" style="fill: #131313; stroke: #131313; stroke-width: 3"/>
    </g>
   </g>
   <g id="line2d_21">
    <path clip-path="url(#p3468cd98c5)" style="fill: none; stroke: #131313; stroke-width: 2.16; stroke-linecap: round"/>
   </g>
   <g id="line2d_22">
    <path d="M 364.680005 110.88 
L 394.99717 110.88 
" clip-path="url(#p3468cd98c5)" style="fill: none; stroke: #131313; stroke-width: 2.16; stroke-linecap: round"/>
   </g>
   <g id="line2d_23">
    <path clip-path="url(#p3468cd98c5)" style="fill: none; stroke: #131313; stroke-width: 2.16; stroke-linecap: round"/>
   </g>
   <g id="line2d_24">
    <defs>
     <path id="med3e04fea8" d="M 0 2.5 
C 0.663008 2.5 1.29895 2.236584 1.767767 1.767767 
C 2.236584 1.29895 2.5 0.663008 2.5 0 
C 2.5 -0.663008 2.236584 -1.29895 1.767767 -1.767767 
C 1.29895 -2.236584 0.663008 -2.5 0 -2.5 
C -0.663008 -2.5 -1.29895 -2.236584 -1.767767 -1.767767 
C -2.236584 -1.29895 -2.5 -0.663008 -2.5 0 
C -2.5 0.663008 -2.236584 1.29895 -1.767767 1.767767 
C -1.29895 2.236584 -0.663008 2.5 0 2.5 
z
" style="stroke: #000000; stroke-width: 3"/>
    </defs>
    <g clip-path="url(#p3468cd98c5)">
     <use xlink:href="#med3e04fea8" x="203.841432" y="184.8" style="stroke: #000000; stroke-width: 3"/>
    </g>
   </g>
   <g id="line2d_25">
    <path clip-path="url(#p3468cd98c5)" style="fill: none; stroke: #000000; stroke-width: 2.16; stroke-linecap: round"/>
   </g>
   <g id="line2d_26">
    <path clip-path="url(#p3468cd98c5)" style="fill: none; stroke: #000000; stroke-width: 2.16; stroke-linecap: round"/>
   </g>
   <g id="line2d_27">
    <path d="M 192.978421 184.8 
L 214.303818 184.8 
" clip-path="url(#p3468cd98c5)" style="fill: none; stroke: #000000; stroke-width: 2.16; stroke-linecap: round"/>
   </g>
  </g>
 </g>
 <defs>
  <clipPath id="p3468cd98c5">
   <rect x="113.11185" y="0" width="446.4" height="221.76"/>
  </clipPath>
 </defs>
</svg>
